<svg xmlns="http://www.w3.org/2000/svg" viewBox="0 0 677.44 180.8" width="677.44" height="180.8"><defs><style>.cls-1{fill:#fff;}</style></defs><title>Asset 2</title><g id="Layer_2" data-name="Layer 2"><g id="Layer_1-2" data-name="Layer 1"><g id="tHDV4N.tif"><path class="cls-1" d="M173.77,158.33c-3,2.77-6.77,3.89-10.74,4.31-7.92.85-15.47-.91-22.9-3.38a140.69,140.69,0,0,1-33.56-16.93A248.8,248.8,0,0,1,37.1,73.24,129.72,129.72,0,0,1,21,41.32c-2-6.13-3.39-12.38-3.13-18.88.28-7.12,2.4-13.42,8.29-18A22.32,22.32,0,0,1,37.32.26c.25,0,.6.15.73-.26h6.22c1.49.61,3.1.55,4.64.86A85.56,85.56,0,0,1,72.82,9.92c13.88,7.46,26.25,17,37.78,27.67A220.76,220.76,0,0,1,126.51,54l1.25,1.45a1.75,1.75,0,0,1-1.23-.67A303.48,303.48,0,0,0,88.19,26.89C77.93,20.71,67.33,15.22,55.77,11.83a43.9,43.9,0,0,0-15.3-2.11c-3.1.21-6.06.91-8.44,3.12A11.55,11.55,0,0,0,28.61,21c-.41,6.38,1.22,12.4,3.38,18.3a137.52,137.52,0,0,0,14.67,28.1,271.71,271.71,0,0,0,33.41,40.94,266.1,266.1,0,0,0,40.09,34.05c8.87,6,18.11,11.45,28.26,15.12a49,49,0,0,0,13.39,3,20.55,20.55,0,0,0,11.73-2.42Z"/><path class="cls-1" d="M138,180.8c-1.08-.56-2.28-.42-3.42-.6a92.69,92.69,0,0,1-25.23-8.3c-15-7.1-28.53-16.38-41.25-26.94A250.64,250.64,0,0,1,21.78,94.91C14.64,84.61,8.43,73.8,4.13,62A68.93,68.93,0,0,1,.26,46.25c0-.2,0-.42-.26-.49v-8a24.09,24.09,0,0,0,1-4.14,19.81,19.81,0,0,1,12.2-14c0,2.27-.17,4.53,0,6.76a12.3,12.3,0,0,1-1.3,7.69c-2,3.54-1.48,7.65-.86,11.56,1.46,9.19,5.18,17.57,9.5,25.7,7.54,14.18,17,27,27.39,39.21A289.93,289.93,0,0,0,94.91,155c10.14,7.56,20.74,14.37,32.51,19.18,5.93,2.42,12,4.28,18.49,4.28a18.21,18.21,0,0,0,10.15-2.75l.18.2c-2.64,2.65-6,3.77-9.55,4.45-.73.14-1.53,0-2.18.48Z"/><path class="cls-1" d="M677.44,127.83c-.81,0-1-.44-1-1.24a27.58,27.58,0,0,0-.41-4.41l-1.73,4.69c-.12.34-.13.76-.66.76s-.54-.4-.66-.75a33.68,33.68,0,0,0-1.74-4.43q-.12,2-.25,3.91c0,.33,0,.66-.08,1s-.28.37-.56.36-.39-.25-.37-.51c.14-2.14.28-4.29.41-6.43,0-.45.31-.5.67-.53.53-.05.73.23.88.66.54,1.59,1.1,3.18,1.74,5,.65-1.76,1.24-3.28,1.77-4.81.19-.56.38-1,1.09-.88s.47.65.57,1c.23.84-.16,1.78.37,2.58Z"/><path class="cls-1" d="M471.61,67.91c4.72.15,9.43-.17,14.15.45a27.61,27.61,0,0,1,24.11,24.9c.71,7.63-.36,14.89-4.69,21.37a28,28,0,0,1-23.31,13c-7.24.27-14.5.36-21.74-.08A28.81,28.81,0,0,1,434,105.22c-1.61-7.46-1.4-14.86,2.12-21.8,4.4-8.68,11.71-13.46,21.21-15C462.08,67.61,466.85,68.05,471.61,67.91Zm.7,10.47c-3.3,0-6,0-8.68,0A20.46,20.46,0,0,0,452.93,81c-6.87,4.2-9.62,10.5-9.28,18.36a18.21,18.21,0,0,0,17.25,17.72c6.82.39,13.66.11,20.49.1a18.11,18.11,0,0,0,6.19-1.19c7.81-2.86,12.25-9.7,12.09-18.62-.18-10.36-7.34-18-17.66-18.89C478.58,78.23,475.14,78.47,472.31,78.38Z"/><path class="cls-1" d="M268.88,97.77c0-9.49,0-19,0-28.46,0-1,.15-1.41,1.32-1.4,14,0,28.09,0,42.14.05a24.34,24.34,0,0,1,18.59,8c7.15,7.76,7.86,25.73-7.61,32.75A27.85,27.85,0,0,1,311.57,111c-10.32,0-20.63,0-30.95,0-1,0-1.34.2-1.33,1.27.06,4.81,0,9.61,0,14.42,0,.91-.19,1.21-1.15,1.19-2.69-.07-5.39-.08-8.08,0-1.09,0-1.26-.35-1.26-1.33C268.89,116.91,268.88,107.34,268.88,97.77Zm28.78,2.82h15.28a15.24,15.24,0,0,0,5.94-1.06c8.47-3.53,8.17-14.06,3.29-18.07A13.94,13.94,0,0,0,313,78.39c-10.81,0-21.62,0-32.43,0-1,0-1.24.24-1.24,1.23q.07,9.88,0,19.76c0,1.09.36,1.27,1.34,1.27C286.31,100.57,292,100.59,297.66,100.59Z"/><path class="cls-1" d="M526.73,97.86c0-9.57,0-19.14,0-28.71,0-1,.23-1.23,1.22-1.23,14.09,0,28.18,0,42.26,0a24.32,24.32,0,0,1,18.42,7.82c7.32,7.83,8,25.83-7.43,32.87A27.67,27.67,0,0,1,569.47,111c-10.36,0-20.72,0-31.08,0-1,0-1.25.22-1.23,1.21.06,4.85,0,9.7,0,14.54,0,.85-.18,1.13-1.08,1.12q-4.16-.09-8.33,0c-.9,0-1.08-.27-1.08-1.12C526.74,117.08,526.73,107.47,526.73,97.86Zm28.69,2.73h15.28a18.39,18.39,0,0,0,3.82-.36c7.87-1.68,11.59-10.68,7-17-2.54-3.52-6.26-4.77-10.41-4.78-11,0-22,0-32.93,0-.84,0-1,.25-1,1q0,10.06,0,20.13c0,.9.28,1.08,1.12,1.07C544,100.57,549.71,100.59,555.42,100.59Z"/><path class="cls-1" d="M351.61,97.84c0-9.53,0-19.07,0-28.6,0-1.14.32-1.37,1.38-1.34,2.65.08,5.31.07,8,0,1,0,1.16.27,1.16,1.18,0,7.34,0,14.67,0,22,0,1,.14,1.41,1.32,1.4q18.53-.08,37.05,0c1.08,0,1.39-.25,1.38-1.36-.05-7.29,0-14.59-.06-21.88,0-1.13.31-1.38,1.39-1.35q3.91.12,7.83,0c1.08,0,1.38.23,1.38,1.35q-.06,25.05,0,50.11c0,2.49,0,5,0,7.46,0,.77-.22,1-1,1-2.82,0-5.64-.07-8.45,0-1,0-1.14-.35-1.13-1.22,0-7.38,0-14.76,0-22.13,0-1.18-.18-1.59-1.51-1.58q-18.4.09-36.81,0c-1.08,0-1.45.2-1.44,1.38.06,7.38,0,14.76.06,22.13,0,1.18-.35,1.43-1.45,1.4q-3.91-.12-7.83,0c-1,0-1.22-.29-1.22-1.25C351.63,117,351.61,107.42,351.61,97.84Z"/><path class="cls-1" d="M149.53,78.38c-4.7.13-10.5-.25-16.3.18A18.59,18.59,0,0,0,116.1,95.32c-.51,5.11.17,9.94,3.27,14.17A18.51,18.51,0,0,0,135,117.24c11,.06,22,0,32.94,0,1.17,0,1.44.33,1.41,1.45-.08,2.73,0,5.47,0,8.2,0,.69-.17.94-.9.93-12.05-.13-24.12.38-36.16-.25-12.64-.65-23.67-10.55-26.08-23-1.26-6.47-1.18-12.91,1.34-19.05,4.05-9.87,11.72-15.3,22.1-17.09a41.72,41.72,0,0,1,7.18-.47c10.36,0,20.72,0,31.08,0,1.25,0,1.5.36,1.46,1.52-.09,2.61-.08,5.22,0,7.83,0,1-.28,1.16-1.19,1.15C162.32,78.36,156.47,78.38,149.53,78.38Z"/><path class="cls-1" d="M637.76,67.93c9.16,0,18.31,0,27.47,0,1,0,1.33.23,1.3,1.28-.08,2.73-.06,5.47,0,8.2,0,.84-.26,1-1,1-7,0-14,0-21-.05-1.36,0-1.59.41-1.58,1.65,0,15.41,0,30.83.06,46.24,0,1.35-.4,1.63-1.64,1.58-2.44-.1-4.89-.09-7.33,0-1.09,0-1.37-.24-1.37-1.35q.06-23.25,0-46.49c0-1.81.25-1.59-1.57-1.59-6.92,0-13.84,0-20.76,0-1,0-1.36-.15-1.32-1.25.09-2.69.07-5.39,0-8.08,0-.94.25-1.17,1.17-1.16C619.36,67.95,628.56,67.93,637.76,67.93Z"/><path class="cls-1" d="M253.3,67.93l-6.12,8.27q-11.47,15.46-23,30.92a3.19,3.19,0,0,0-.66,2c0,5.84,0,11.69,0,17.53,0,.86-.21,1.12-1.09,1.1-3.07-.06-6.13,0-9.2,0-.77,0-1-.21-1-1q0-9.88,0-19.77a1.81,1.81,0,0,1,.44-1.12q13.34-18.64,26.67-37.28a1.43,1.43,0,0,1,1.29-.75C244.81,67.95,248.91,67.93,253.3,67.93Z"/><path class="cls-1" d="M208.33,101.77,173.77,59a1.34,1.34,0,0,1,1.07-.22c3.73,0,7.45,0,11.18,0a1.93,1.93,0,0,1,1.7.76q13.17,16.1,26.39,32.16a1.31,1.31,0,0,1,0,2C212.17,96.32,210.29,99,208.33,101.77Z"/><path class="cls-1" d="M109.45,73.23c-3.16-2.56-6.14-5-9.18-7.44C87.61,55.73,74.4,46.49,60.06,39,52,34.69,43.62,31,34.67,28.86c-.42-.1-.77-.16-.86-.71a27.15,27.15,0,0,1-.34-7.79c.12-.89.38-1,1.26-.81A91.31,91.31,0,0,1,55,27.8,178.07,178.07,0,0,1,88.62,51.71a222.62,222.62,0,0,1,20,20.16A2.12,2.12,0,0,1,109.45,73.23Z"/><path class="cls-1" d="M601,144.28H588.48a1.19,1.19,0,0,1-1-.5q-11.16-14.12-22.35-28.23a5.25,5.25,0,0,1-.31-.53l9.14-.27c1.12,0,2.24,0,3.35-.11a2,2,0,0,1,2,.89q10.71,14,21.48,28A.88.88,0,0,1,601,144.28Z"/><path class="cls-1" d="M666,124.32a10.19,10.19,0,0,1,0-1.36c.18-1.29,0-2.19-1.66-1.86-.27.05-.59,0-.58-.41s.28-.46.58-.46h4.34c.34,0,.54.09.55.48s-.31.39-.59.4a2.42,2.42,0,0,1-.49,0c-1-.19-1.21.33-1.17,1.23.06,1.53,0,3.06,0,4.58,0,.35.11.79-.49.79s-.51-.42-.51-.78Q666,125.62,666,124.32Z"/><path class="cls-1" d="M174.13,158l-.36.36-.24-.21.43-.32Z"/><path class="cls-1" d="M174,157.79c.1,0,.25-.08.28,0s0,.18-.12.22Z"/><path class="cls-1" d="M156.39,175.53l.21-.17.07.07-.22.17Z"/><path class="cls-1" d="M156.46,175.61a.24.24,0,0,1-.23.27l-.18-.2.34-.15Z"/></g></g></g></svg>
